<svg xmlns="http://www.w3.org/2000/svg" viewBox="0 0 107.55 28.8"><defs><style>.cls-1{stroke:#000;stroke-miterlimit:10;stroke-width:0.28px;}</style></defs><g id="图层_1" data-name="图层 1"><path class="cls-1" d="M8.23,13.23H8.08L6.85.7.48,13.23H0L6.77,0h.45L8.46,12.79l5.1-10-.76-.5-.61-.81L12,.89l.43-.14.17.58.52.66.62.44L15,0l.36.15L14.12,2.56l.79.14,1.19-.21L17,2l.51-.74.17-.68,0-.6h.45l0,.65-.2.83-.68.89-1,.58-1.33.25-1-.2L8.72,13.23H8.23Z"/><path class="cls-1" d="M18.61,2.75,20.16,1l.08-.05L22,0l.15,0,3.4,0,.14.05,1.66.93,0,.06,1.27,1.6.42.8.61-.62.24-.63v-.8h.43v.82l0,.13-.23.65L30.05,3l-.78.8.67,1.39V7.7L29,10.24l-.05.08-1.58,1.86-.08.05-1.63,1-.13,0H22.15l-.12,0-1.79-1-.1-.07L18.6,10.34l0-.08-1-2.54-.08-2.48Zm5.68-.58V1.33h.43v.83l.35.78.78.71.93.4h1l.91-.42-.61-1.07L27.06,1.24,25.45.33H22.23l-1.76.93L18.93,3,18,5.33V7.59L19,10.08l1.52,1.79,1.71.93h3.34l1.54-.9,1.56-1.82.9-2.53V5.31L28.92,4l-.94.4-.1,0H26.75l-.1,0-1-.43-.93-.88-.4-.83Z"/><path class="cls-1" d="M38.72,13.23h-.15L37.33.7,31,13.23h-.48L37.26,0h.45l1.23,12.82,5.1-10-.75-.5-.62-.81L42.49.89l.43-.14.17.58L43.6,2l.63.44L45.49,0l.37.15L44.61,2.56l.78.14,1.2-.21L47.44,2,48,1.23l.17-.68V0h.45V.6l-.2.83-.68.89-1,.58-1.33.25-1-.2L39.2,13.23h-.48Z"/><path class="cls-1" d="M47.51,8.17H55v.46H47.51Z"/><path class="cls-1" d="M34.37,15.67,34.56,17l-.23.68.74,1-.32.25-.58-.74-.31,1L33,20l-.08,0-1.46.41L30,20.2l.06-.39,1.41.23,1.35-.4.7-.73.39-1.13-.13-.17L33,16.67l-1.68-1h-3.3l-1.65.91-1.52,1.71-1,2.23v2.42l.88,2.42,1.51,1.81,1.5.92h3.49l1.57-.92,1.5-1.71.31.25-1.58,1.85-1.62.93-.15,0H27.7l-.13,0-1.53-1-1.64-2L23.48,23V20.4L24.53,18,26,16.27l1.89-1.06h3.5l1.84,1.08.8,1,.12-.34L34,15.81l-.45-.8.34-.22Z"/><path class="cls-1" d="M37.13,28.32l1.35-2.64-.22-.06-1,.11-.78.5-.58.76-.11.72.16.7-.41.1-.18-.8.16-.93.68-.86.91-.59,1.25-.15.37.11,5.14-10.08.37.16-5.11,10,.51.16,1,.86.57,1.18,1,.56,1.42.19L44.85,28l.86-.54.62-1.08.38.21-.63,1.13-1.06.7-1.4.36-1.54-.2-1.21-.68-.55-1.17L39.46,26l-.58-.17L37.5,28.52Z"/><path class="cls-1" d="M46.15,28.24l3.22-5.91L53,15.49l.17-.28.31.25-3.87,7.35V24.4l.65,1.68.85,1.25,1.39.73h2l1-.6,0,0,.88-1,.25-.51-.34-1.4v-.11l.1-1.61,0-.12.67-1.28.36.19h0l-.65,1.23-.1,1.58.22,1L62,15.21l.38.15L57.07,26l1,1.38,1.4.71h1.77l1.28-.61.85-1.21L64,24.47l.38.17-.63,1.76-.06.1-.87,1.23-.08.06-1.38.7h-2l-.18,0-1.31-.68-.07-.07-1-1.25-.16.32-.94,1-1.1.65-.13,0H52.41l-.15,0-1.45-.75-.06-.08-.88-1.25,0-.1-.66-1.76,0-.1v-.81l-2.61,4.9Z"/><path class="cls-1" d="M75.65,17.33l-.48-.86-.81-.63-1-.33.13-.4,1,.35.87.71.59,1,.15,1.31-.31,1.25,0,.12L75.12,21l-.12.1-1.19.76-.08,0-.65.19-.35.31-.07.05-1.31.67-.1,0-1.57.15-1.53-.58-2.91,5.89-.38-.2,3-5.89-.73-.63-.77-1.31,0-.09-.2-1.26,0-.1.33-1,.36.13-.3,1,.17,1.16.68,1.17.65.58,3.34-6.89.38.16-3.41,6.94,1.4.55,1.49-.15.88-.43.12-.07-1.33-.15-.93-.59.2-.34,1,.57h0l1.2.11h0l.54-.06.34-.22L73.71,20l.38.13-.36,1.23,1-.68.72-1.09.28-1.13Zm.65,7.51v0l-.23-1.48h0l-.47-1-.45-.55.29-.23.51.6.47,1,0,.1.23,1.52v.1l-.33,1.3,0,.1-.93,1.14-.07.09-1.21.73,0,0-1.24.26h-.14l-1.06-.2.08-.42,1,.22h0l1.18-.25h0l1.11-.7L76,26Z"/><path class="cls-1" d="M50.07,12.92l5.53-11,.34.23-5.51,11ZM62.22,7.79,61.84,7l-.75-.71-.21-.1-.09.35-.25.53L59.8,8.22l-.12.08-1.26.62-.18-.37,1.27-.63.67-1,.2-.47.11-.44-.34-.16h-1l-1,.45h0l-.78.77-.39.71v.93h-.39V7.67L57,6.84,57,6.77,57.85,6l0,0L59,5.5l.1,0h1.09l.1,0,.34.15.09-.35-.1-1.75-.68-1.41L58.58.91h0L57.11.27H55.38l-1.73.89v0h0l-.67,1h0l-.26,1h-.43l.28-1.07,0-.08.75-1.1.11-.1L55.26-.1l.15,0h1.71l.1,0,1.55.63,1.44,1.34.07.1L61,3.42l0,.1.1,1.78v.06L61,5.82l.27.12.86.79.5.92V8.73h-.4Z"/><path class="cls-1" d="M63,13l1.35-2.64-.22-.06-1,.11-.78.5-.59.77-.11.71.16.7-.41.1-.18-.8.16-.93.68-.86.92-.58,1.24-.15.37.11L69.69-.13l.37.16L65,10.08l.51.15,1.05.86.56,1.18,1,.56,1.41.19,1.24-.34.87-.54.61-1.08.38.21L72,12.4l-1.06.7-1.4.37L68,13.27l-1.21-.68-.55-1.18-.86-.77-.58-.17-1.38,2.71Z"/><path class="cls-1" d="M77.93,3.45,79,3.89l.48.4L83.09-.13h.32V7.79l.23-.22L84,7.11h0l.43-.78V5.25h.4V6.33l0,.11-.58,1.1L83.74,8l-.33.32v4.83H83l0-4.49-1.54.67-.1,0H80l-.1,0L78.58,8.7l-.09,0-1.09-1,0,0-4.52,5.6-.3-.25,4.62-5.73L77.05,7l-.27-.6V5.23h.4v1.1l.28.5L79.27,4.6l-.46-.38-1-.35h-1l-.94.43-.77.75-.28.89v.85h-.41v-1l.35-.89L75.57,4l1.05-.57ZM83.09.36,83,.53l-.1.15L79.81,4.54l.31.26.52.93,0,.13v.93h-.42V5.86l-.44-.81-.25-.2L77.67,7.2l.08.14,1,1h0l1.34.58h1.21l1.45-.58h0L83,8.12Z"/><path class="cls-1" d="M97.5.33l.19,1.35-.23.68.74,1-.31.25-.58-.74-.32,1-.9.88L96,4.7l-1.46.41-1.46-.24.06-.4,1.42.23,1.34-.4.7-.73L97,2.44l-.14-.16-.71-.95L94.48.3h-3.3l-1.64.91L88,2.92l-1,2.23V7.57L87.93,10l1.51,1.81,1.49.91h3.49L96,11.81l1.5-1.71.31.24-1.57,1.85-1.63.93-.15,0H90.83l-.13,0-1.53-1-1.64-2-.92-2.49V5.06l1-2.42L89.14.93,91-.13h3.5L96.38,1l.79,1,.12-.34L97.12.47l-.45-.8L97-.55Z"/><path class="cls-1" d="M101.56,1.21l-.43,1.1V3.54h0l.38.9.6-.3.14,0h1.42v.36h-1.43l-.57.29.6.66.7.32h1.54l.67-.39.76-.84.3.26-.73.83-.81.5-.17,0-1.61,0-.15,0-.83-.43L101.3,5h0l-.86.94-.68,1.6V9.08l.61,1.71,1,1.26,1.26.67h2.26l1.31-.79.9-1.41V9h.43v1.69l-.07.1-.93,1.44-.06.07-1.41.85-.15,0h-2.36l-.15-.07-1.34-.66-.12-.08-.91-1.3,0-.08L99.33,9.2V7.47l0-.11.69-1.63,0-.07,1-1,.06,0-.46-1V2.26l0-.12.43-1.08.07-.1,1.23-1,.15,0h1.64l.17.05,1.08.75.06,0,.45.84-.3.2L105.28,1,104.2.3h-1.6Z"/></g></svg>