<svg xmlns="http://www.w3.org/2000/svg" viewBox="0 0 208.98 198.85" id="svg2"><defs>
<style>#svg2 {
	scale: 1.6
}.cls-1,.cls-3{fill:none;stroke:#000;stroke-miterlimit:10;stroke-width:0.71px;}.cls-2{font-size:7px;font-family:Crucial-LightItalic, Crucial;font-weight:300;font-style:italic;}.cls-3{stroke-linecap:round;stroke-dasharray:1.5 2.83 1.42;}</style></defs><g id="图层_6" data-name="图层 6"><line class="cls-1" x1="101.62" y1="111.91" x2="128.86" y2="179.18"/><text class="cls-2" transform="translate(119.32 179.18)">6</text></g><g id="图层_5" data-name="图层 5"><path class="cls-3" d="M70.94,44.18S85.2,49,90.05,49.89s21.37,4.38,22.61,16-9.92,27.86-8.26,34,19.2,19.31,21.88,21.28a13.75,13.75,0,0,1,5,5.92c.62,1.76-7.94,4.52-4.18,14.66,1.31,3.54,24,19.74,24,19.74"/>
<text class="cls-2" transform="translate(114.39 60.73)">5</text></g><g id="图层_4" data-name="图层 4">
<path class="cls-1" d="M128.86,94.47l-50.15,20s-4.2-8.14-7.77-8.14S70.8,89,77.72,84.76s6.67-.79,9.54-5.51a38.76,38.76,0,0,1,7.26-8.4L107.76,59.3s4.56-9.85,6.08-15.12c1.17-4.06,6.81-5.8,6.81-5.8s5.56-2.4,6.82-3.53,5.85-8.23,5.85-8.23"/><text class="cls-2" transform="translate(68.26 115.27)">4</text></g>
<g id="图层_3" data-name="图层 3"
><path class="cls-3" d="M67.86,77.27s-.81,2.29,2.88,5.89,10.88,3.48,13.58,12.68,5.17,11,4.94,19.9,4.26,10.51,5.86,12.25,2.91,4.67,4.48,6.16,10.79-2.49,14.83,0,10.84,2.3,14.43,1.3,13.92-13.24,18-14.84c8-3.19,11.15,2.8,14.52,4.54s3.66,6.76,4.33,8.5a6.16,6.16,0,0,0,2.47,2.74"/><text class="cls-2" transform="translate(89.11 136.3)">3</text></g><g id="图层_2" data-name="图层 2"><line class="cls-1" x1="63.13" y1="125.15" x2="168.14" y2="83.18"/><text class="cls-2" transform="translate(153.2 82.71)">2</text></g>
<g id="图层_1" data-name="图层 1">
<path class="cls-1" d="M44.39,67.54A14.17,14.17,0,0,0,50.56,70a27.9,27.9,0,0,1,5.75.76c1.42.42,4.53-4.77,4.87-4.61C66.61,68.69,73.85,69.52,83,72a9.6,9.6,0,0,1,5.74,3.66,8.66,8.66,0,0,1,1.3,3.2C92,88.29,96.55,96.91,99.69,106l1,2.9"/><text class="cls-2" transform="translate(58.59 60.73)">1</text></g></svg>